PathFileType	3	(X/Y/Z)	Static_01.trc
DataRate	CameraRate	NumFrames	NumMarkers	Units	OrigDataRate	OrigDataStartFrame	OrigNumFrames
200	200	11	32	mm	200	251	400
Frame#	Time	L_ASIS			R_ASIS			L_PSIS			R_PSIS			R_Knee_Med			R_Thigh_Upper			R_Knee_Lat			R_Thigh_Front			R_Thigh_Rear			L_Knee_Med			L_Thigh_Upper			L_Thigh_Front			L_Thigh_Rear			L_Knee_Lat			L_Ankle_Med			L_Shank_Upper			L_Shank_Front			L_Shank_Rear			L_Ankle_Lat			R_Ankle_Med			R_Shank_Upper			R_Shank_Rear			R_Shank_Front			R_Ankle_Lat			R_Heel			R_Toe_Tip			R_Toe_Med			R_Toe_Lat			L_Heel			L_Toe_Tip			L_Toe_Med			L_Toe_Lat			
		X1	Y1	Z1	X2	Y2	Z2	X3	Y3	Z3	X4	Y4	Z4	X5	Y5	Z5	X6	Y6	Z6	X7	Y7	Z7	X8	Y8	Z8	X9	Y9	Z9	X10	Y10	Z10	X11	Y11	Z11	X12	Y12	Z12	X13	Y13	Z13	X14	Y14	Z14	X15	Y15	Z15	X16	Y16	Z16	X17	Y17	Z17	X18	Y18	Z18	X19	Y19	Z19	X20	Y20	Z20	X21	Y21	Z21	X22	Y22	Z22	X23	Y23	Z23	X24	Y24	Z24	X25	Y25	Z25	X26	Y26	Z26	X27	Y27	Z27	X28	Y28	Z28	X29	Y29	Z29	X30	Y30	Z30	X31	Y31	Z31	X32	Y32	Z32
251	1.25	-1220.2787	1000.323	-1908.5332	-1029.9641	1003.1452	-1709.9614	-1297.9977	1045.707	-1737.109	-1209.8574	1054.6747	-1650.6761	-1096.6897	466.74887	-1686.0263	-1042.0181	826.3302	-1596.1483	-1041.6721	502.8124	-1591.8305	-995.32634	772.59508	-1634.7677	-1041.7726	760.5321	-1583.8466	-1263.4552	465.15676	-1783.5198	-1331.762	857.77084	-1887.0242	-1314.6192	785.63396	-1906.941	-1359.2417	791.89709	-1844.1477	-1340.7063	487.16476	-1854.8971	-1300.1751	74.3404	-1799.0869	-1413.4978	360.0038	-1828.3404	-1386.9327	303.0131	-1848.4288	-1415.0235	290.29181	-1808.2307	-1385.9409	66.07621	-1830.8212	-1084.1226	77.785645	-1616.5917	-1072.6317	368.63877	-1520.716	-1104.2655	308.56647	-1517.2819	-1047.5538	304.98051	-1535.0506	-1075.3184	63.525322	-1523.1687	-1146.171	22.268849	-1525.557	-956.29412	42.203415	-1629.4987	-966.63117	17.032695	-1654.3092	-963.07737	18.133917	-1535.5923	-1392.2605	25.607993	-1760.0891	-1263.9709	38.181882	-1938.5996	-1239.0588	14.928268	-1924.621	-1359.9213	10.964237	-1942.475
252	1.255	-1220.3474	1000.3206	-1908.5125	-1029.9922	1003.1485	-1709.9484	-1298.0251	1045.7024	-1737.0924	-1209.8953	1054.6792	-1650.6522	-1096.6915	466.74945	-1686.027	-1042.0343	826.32975	-1596.1411	-1041.6781	502.81199	-1591.8303	-995.34956	772.59496	-1634.7656	-1041.7873	760.53145	-1583.8417	-1263.4604	465.15991	-1783.5246	-1331.7864	857.77368	-1887.0145	-1314.6409	785.64073	-1906.9327	-1359.2635	791.89758	-1844.1395	-1340.7157	487.16635	-1854.9074	-1300.1828	74.339503	-1799.0794	-1413.5008	360.00383	-1828.3466	-1386.9324	303.01144	-1848.42	-1415.0093	290.28253	-1808.2399	-1385.9387	66.073978	-1830.8224	-1084.1201	77.789215	-1616.5969	-1072.6334	368.6385	-1520.7137	-1104.2649	308.56541	-1517.2785	-1047.5557	304.98093	-1535.0513	-1075.3193	63.526136	-1523.1685	-1146.1692	22.269704	-1525.5553	-956.29465	42.205972	-1629.4992	-966.6364	17.029147	-1654.3087	-963.07723	18.135123	-1535.5934	-1392.2569	25.607058	-1760.0862	-1263.9692	38.184829	-1938.5988	-1239.0607	14.928388	-1924.62	-1359.9194	10.968142	-1942.4794
253	1.26	-1220.4137	1000.3188	-1908.4922	-1030.0215	1003.1518	-1709.935	-1298.0534	1045.6978	-1737.0755	-1209.9387	1054.6864	-1650.6205	-1096.6881	466.74993	-1686.0293	-1042.0507	826.3293	-1596.1336	-1041.6836	502.8116	-1591.8302	-995.37279	772.59491	-1634.7631	-1041.8023	760.53085	-1583.8368	-1263.4661	465.1629	-1783.5294	-1331.8108	857.77658	-1887.0054	-1314.6628	785.64762	-1906.9248	-1359.2852	791.89783	-1844.132	-1340.7239	487.16805	-1854.9165	-1300.1998	74.333955	-1799.0714	-1413.504	360.00469	-1828.353	-1386.9314	303.01003	-1848.4113	-1414.9942	290.27382	-1808.2497	-1385.9376	66.072355	-1830.8232	-1084.1175	77.792002	-1616.6028	-1072.6347	368.6381	-1520.7112	-1104.2642	308.56427	-1517.2747	-1047.5577	304.98091	-1535.0521	-1075.3203	63.526587	-1523.1683	-1146.1674	22.270527	-1525.5537	-956.29506	42.207823	-1629.4999	-966.6409	17.026094	-1654.3073	-963.07705	18.136284	-1535.5945	-1392.2549	25.606991	-1760.0839	-1263.9675	38.187444	-1938.5978	-1239.0623	14.928738	-1924.6189	-1359.9157	10.97272	-1942.4847
254	1.265	-1220.4775	1000.3178	-1908.4724	-1030.0517	1003.1555	-1709.9214	-1298.0826	1045.6933	-1737.0582	-1209.9865	1054.6957	-1650.5822	-1096.6815	466.75004	-1686.0324	-1042.0675	826.32899	-1596.1259	-1041.6886	502.81151	-1591.8301	-995.39579	772.59518	-1634.76	-1041.8178	760.53049	-1583.8317	-1263.4724	465.16578	-1783.5339	-1331.8352	857.7793	-1886.9969	-1314.685	785.6546	-1906.9173	-1359.307	791.89792	-1844.1254	-1340.7308	487.16967	-1854.9248	-1300.2262	74.323957	-1799.0631	-1413.5075	360.00622	-1828.3596	-1386.9299	303.00891	-1848.4031	-1414.9789	290.26555	-1808.2599	-1385.938	66.071527	-1830.8235	-1084.115	77.79395	-1616.6092	-1072.6355	368.63773	-1520.7085	-1104.2637	308.56327	-1517.2705	-1047.5597	304.98074	-1535.0528	-1075.3213	63.526922	-1523.1679	-1146.1655	22.271478	-1525.5524	-956.2952	42.209204	-1629.501	-966.64454	17.023672	-1654.3053	-963.0768	18.13753	-1535.5956	-1392.2545	25.607755	-1760.0822	-1263.966	38.189828	-1938.5968	-1239.0636	14.929493	-1924.6178	-1359.9103	10.977914	-1942.4907
255	1.27	-1220.5386	1000.3175	-1908.4531	-1030.0827	1003.1595	-1709.9078	-1298.1128	1045.6892	-1737.0403	-1210.0377	1054.7063	-1650.5385	-1096.6739	466.74962	-1686.0355	-1042.0847	826.32897	-1596.1179	-1041.6932	502.81195	-1591.8299	-995.41842	772.59596	-1634.7563	-1041.8337	760.53054	-1583.8264	-1263.4795	465.16869	-1783.5379	-1331.8595	857.78168	-1886.9891	-1314.7075	785.66171	-1906.9101	-1359.3287	791.89799	-1844.1196	-1340.7366	487.17114	-1854.9324	-1300.2611	74.310112	-1799.0545	-1413.5118	360.00826	-1828.3663	-1386.9282	303.00816	-1848.3958	-1414.9642	290.25773	-1808.2703	-1385.9398	66.071513	-1830.8235	-1084.1125	77.79516	-1616.6159	-1072.6362	368.63756	-1520.7056	-1104.2636	308.56258	-1517.266	-1047.5618	304.98071	-1535.0535	-1075.3222	63.527416	-1523.1673	-1146.1638	22.272733	-1525.5514	-956.29498	42.21037	-1629.5024	-966.64729	17.022008	-1654.3024	-963.07647	18.139003	-1535.5965	-1392.2555	25.609203	-1760.081	-1263.9646	38.192126	-1938.5959	-1239.0645	14.930802	-1924.6168	-1359.9035	10.983629	-1942.4969
256	1.275	-1220.5972	1000.3183	-1908.4342	-1030.1144	1003.1641	-1709.8941	-1298.144	1045.6858	-1737.0217	-1210.0912	1054.7176	-1650.4908	-1096.6672	466.74865	-1686.038	-1042.1024	826.32935	-1596.1095	-1041.6978	502.81308	-1591.8296	-995.44064	772.5974	-1634.752	-1041.8502	760.53113	-1583.8209	-1263.4876	465.1718	-1783.5412	-1331.884	857.78363	-1886.982	-1314.7302	785.66897	-1906.9033	-1359.3506	791.89823	-1844.1146	-1340.7412	487.17259	-1854.9396	-1300.3032	74.293307	-1799.0457	-1413.5168	360.01064	-1828.3729	-1386.9268	303.0079	-1848.3892	-1414.9508	290.25062	-1808.2803	-1385.9427	66.072199	-1830.8232	-1084.1102	77.79586	-1616.6226	-1072.6367	368.63773	-1520.7024	-1104.2639	308.56235	-1517.2614	-1047.5639	304.98104	-1535.054	-1075.3229	63.528301	-1523.1665	-1146.1622	22.274419	-1525.5506	-956.29441	42.21153	-1629.504	-966.64919	17.021188	-1654.2989	-963.0761	18.140809	-1535.5973	-1392.2576	25.611121	-1760.0803	-1263.9635	38.194465	-1938.5951	-1239.0649	14.932747	-1924.6158	-1359.8959	10.989737	-1942.503
257	1.28	-1220.6532	1000.3201	-1908.4158	-1030.1467	1003.169	-1709.8803	-1298.1761	1045.6829	-1737.0025	-1210.1455	1054.7286	-1650.4411	-1096.6629	466.74721	-1686.0394	-1042.1207	826.33018	-1596.1009	-1041.7025	502.81496	-1591.829	-995.46248	772.59952	-1634.7468	-1041.8674	760.53228	-1583.8151	-1263.4968	465.17528	-1783.5437	-1331.9086	857.78514	-1886.9755	-1314.7531	785.67639	-1906.8967	-1359.3726	791.89878	-1844.1102	-1340.745	487.1742	-1854.9462	-1300.351	74.274545	-1799.037	-1413.5229	360.01319	-1828.3792	-1386.9258	303.00827	-1848.3832	-1414.9397	290.24453	-1808.2896	-1385.9464	66.073419	-1830.8228	-1084.1078	77.796317	-1616.6291	-1072.6374	368.6383	-1520.6991	-1104.2648	308.56262	-1517.2567	-1047.5662	304.98184	-1535.0543	-1075.3233	63.529711	-1523.1654	-1146.1608	22.276535	-1525.5498	-956.2936	42.212799	-1629.5058	-966.6503	17.021232	-1654.2949	-963.07575	18.142986	-1535.598	-1392.2604	25.61326	-1760.0798	-1263.9626	38.196909	-1938.5946	-1239.0649	14.935317	-1924.6148	-1359.8882	10.996055	-1942.5087
258	1.285	-1220.707	1000.3232	-1908.3978	-1030.1794	1003.1744	-1709.8665	-1298.209	1045.6806	-1736.9826	-1210.1991	1054.738	-1650.3914	-1096.6618	466.74537	-1686.0394	-1042.1396	826.33145	-1596.0917	-1041.7077	502.81754	-1591.8282	-995.48398	772.60225	-1634.7409	-1041.8853	760.53392	-1583.8087	-1263.5073	465.17925	-1783.5451	-1331.9335	857.78622	-1886.9696	-1314.7764	785.68393	-1906.8903	-1359.3949	791.89973	-1844.1063	-1340.7482	487.17614	-1854.9524	-1300.4025	74.254777	-1799.0284	-1413.53	360.01582	-1828.3849	-1386.926	303.00935	-1848.3776	-1414.9316	290.2397	-1808.2977	-1385.9507	66.075013	-1830.8227	-1084.1056	77.796752	-1616.6352	-1072.6385	368.63924	-1520.6956	-1104.2665	308.56332	-1517.2516	-1047.5689	304.98309	-1535.0544	-1075.3235	63.531657	-1523.1639	-1146.1597	22.278919	-1525.5489	-956.29272	42.214196	-1629.5076	-966.65075	17.022089	-1654.2907	-963.07553	18.145483	-1535.5984	-1392.2637	25.615354	-1760.0794	-1263.962	38.199456	-1938.5943	-1239.0646	14.938386	-1924.6138	-1359.8807	11.002338	-1942.5138
259	1.29	-1220.7587	1000.3274	-1908.3803	-1030.2125	1003.1798	-1709.8527	-1298.2424	1045.6787	-1736.9624	-1210.2504	1054.7447	-1650.3442	-1096.6639	466.74321	-1686.0382	-1042.1591	826.33308	-1596.082	-1041.7137	502.82067	-1591.827	-995.50517	772.60539	-1634.7339	-1041.9039	760.53587	-1583.8019	-1263.519	465.18373	-1783.5454	-1331.9589	857.78688	-1886.964	-1314.8003	785.69149	-1906.8839	-1359.4176	791.90104	-1844.1027	-1340.7514	487.17851	-1854.958	-1300.4563	74.234759	-1799.0201	-1413.5384	360.01844	-1828.3899	-1386.9275	303.01112	-1848.3721	-1414.9272	290.23618	-1808.304	-1385.9552	66.076833	-1830.8228	-1084.1035	77.797298	-1616.6407	-1072.6401	368.64039	-1520.6921	-1104.2689	308.56429	-1517.2462	-1047.572	304.98464	-1535.0541	-1075.3235	63.534004	-1523.1621	-1146.1587	22.281272	-1525.5477	-956.29196	42.215652	-1629.5093	-966.65063	17.023672	-1654.2865	-963.07552	18.148139	-1535.5984	-1392.2673	25.617144	-1760.079	-1263.9616	38.202033	-1938.5943	-1239.0642	14.941712	-1924.6127	-1359.8741	11.008294	-1942.518
260	1.295	-1220.8088	1000.3327	-1908.3633	-1030.2462	1003.1851	-1709.8388	-1298.2763	1045.677	-1736.942	-1210.2976	1054.7474	-1650.302	-1096.6692	466.74071	-1686.0357	-1042.1791	826.33494	-1596.0717	-1041.7206	502.82412	-1591.8254	-995.52609	772.60866	-1634.726	-1041.9233	760.53788	-1583.7944	-1263.5321	465.18862	-1783.5445	-1331.985	857.78716	-1886.9584	-1314.8248	785.69894	-1906.8777	-1359.4406	791.9026	-1844.0995	-1340.7552	487.18137	-1854.963	-1300.5108	74.215033	-1799.0123	-1413.5479	360.02089	-1828.3939	-1386.9307	303.01337	-1848.3667	-1414.9269	290.23381	-1808.3085	-1385.9596	66.078726	-1830.8235	-1084.1016	77.798002	-1616.6456	-1072.6425	368.6415	-1520.6887	-1104.2721	308.56525	-1517.2404	-1047.5757	304.98621	-1535.0536	-1075.3232	63.536483	-1523.1598	-1146.1576	22.283224	-1525.5462	-956.29141	42.217013	-1629.5107	-966.6499	17.02592	-1654.2826	-963.07577	18.1507	-1535.5981	-1392.2709	25.61838	-1760.0785	-1263.9616	38.204479	-1938.5946	-1239.0638	14.944968	-1924.6116	-1359.8686	11.013602	-1942.5212
261	1.3	-1220.8573	1000.339	-1908.3466	-1030.2804	1003.1899	-1709.8248	-1298.3105	1045.6755	-1736.9214	-1210.3387	1054.7444	-1650.268	-1096.6778	466.73782	-1686.0323	-1042.1996	826.33684	-1596.0609	-1041.7287	502.8276	-1591.8235	-995.54678	772.61176	-1634.717	-1041.9435	760.53966	-1583.7863	-1263.5464	465.19376	-1783.5424	-1332.0121	857.78721	-1886.9528	-1314.8501	785.70618	-1906.8714	-1359.4641	791.90431	-1844.0963	-1340.7601	487.18467	-1854.9673	-1300.5646	74.196019	-1799.0052	-1413.5585	360.02287	-1828.3967	-1386.9358	303.01575	-1848.3612	-1414.9307	290.23238	-1808.3112	-1385.9633	66.080514	-1830.8248	-1084.0999	77.798844	-1616.6499	-1072.6456	368.64231	-1520.6855	-1104.276	308.56595	-1517.2342	-1047.58	304.98755	-1535.0529	-1075.3227	63.538753	-1523.1572	-1146.1564	22.284393	-1525.5444	-956.29112	42.21804	-1629.5118	-966.64851	17.028781	-1654.2792	-963.07624	18.152887	-1535.5975	-1392.2742	25.618829	-1760.0778	-1263.9618	38.206578	-1938.5953	-1239.0636	14.947828	-1924.6105	-1359.8643	11.017933	-1942.5235
